<!DOCTYPE svg PUBLIC "-//W3C//DTD SVG 20010904//EN" "http://www.w3.org/TR/2001/REC-SVG-20010904/DTD/svg10.dtd">
<svg version="1.0" xmlns="http://www.w3.org/2000/svg" width="512px" height="512px" viewBox="0 0 5120 5120" preserveAspectRatio="xMidYMid meet">
<g id="layerbg1" fill="#008cdb" stroke="none">
 <path d="M3845 4063 c-110 -1 -638 -7 -1174 -13 -536 -6 -978 -13 -983 -17 -6 -3 -6 -9 -1 -14 9 -9 384 -54 1283 -154 228 -25 427 -49 441 -53 25 -7 4 -33 -463 -572 -269 -311 -491 -570 -494 -576 -3 -7 124 -269 281 -584 240 -480 289 -571 300 -559 24 26 1454 2532 1449 2541 -5 7 -79 8 -639 1z"/>
 <path d="M644 3787 c-2 -7 212 -379 476 -825 l481 -811 647 -541 c355 -297 650 -536 654 -532 9 9 -1401 2593 -1431 2624 -13 13 -88 23 -386 52 -203 20 -385 39 -403 42 -22 3 -34 1 -38 -9z"/>
 </g>
<g id="layerbg2" fill="#ffffff" stroke="none">
 <path d="M0 2560 l0 -2560 2560 0 2560 0 0 2560 0 2560 -2560 0 -2560 0 0 -2560z m4457 1477 c-7 -19 -1417 -2480 -1425 -2489 -4 -4 -133 244 -287 552 l-279 559 25 28 c14 15 239 275 499 576 300 348 469 552 463 558 -6 6 -210 33 -454 60 -244 28 -610 70 -814 93 l-370 43 325 7 c179 4 681 10 1115 15 1275 13 1208 13 1202 -2z m-3372 -303 c204 -20 373 -39 376 -43 14 -14 1417 -2582 1410 -2579 -5 2 -288 237 -630 523 l-621 520 -478 804 c-262 442 -478 808 -480 812 -2 5 9 7 25 4 15 -3 195 -21 398 -41z"/>
 </g>
<g id="layer101" fill="#008cdb" stroke="none">
 <path d="M3320 4049 c-983 -10 -1632 -21 -1627 -25 4 -4 281 -36 1311 -153 241 -28 441 -52 443 -55 4 -4 -868 -1023 -966 -1129 l-25 -28 284 -569 c157 -313 288 -566 291 -562 6 6 1410 2458 1438 2510 l12 22 -218 -2 c-120 -1 -544 -5 -943 -9z"/>
 <path d="M652 3777 c1 -8 218 -376 480 -818 l477 -805 642 -537 c353 -295 644 -535 646 -533 4 4 -1415 2597 -1431 2613 -6 6 -162 26 -381 47 -203 20 -385 39 -403 42 -26 4 -33 2 -30 -9z"/>
 </g>
<g id="layer102" fill="#ffffff" stroke="none">
 <path d="M0 2560 l0 -2560 2560 0 2560 0 0 2560 0 2560 -2560 0 -2560 0 0 -2560z m4469 1478 c-28 -52 -1432 -2504 -1438 -2510 -3 -4 -134 249 -291 562 l-284 569 25 28 c98 106 970 1125 966 1129 -2 3 -202 27 -443 55 -1030 117 -1307 149 -1311 153 -6 6 1565 27 2570 34 l218 2 -12 -22z m-3384 -294 c219 -21 375 -41 381 -47 16 -16 1435 -2609 1431 -2613 -2 -2 -293 238 -646 533 l-642 537 -477 805 c-262 442 -479 810 -480 818 -3 11 4 13 30 9 18 -3 200 -22 403 -42z"/>
 </g>

</svg>